<!DOCTYPE svg>
<svg version="1.2" baseProfile="tiny" xmlns="http://www.w3.org/2000/svg" xmlns:xlink="http://www.w3.org/1999/xlink" width="570" height="380" viewBox="0 0 570 380">
    <style type="text/css"><![CDATA[

            .hello-cycle {
                -webkit-animation: hello-cycle steps(54) 8s infinite;
                -webkit-animation-delay: 3s;
                -ms-animation: hello-cycle steps(54) 8s infinite;
                -ms-animation-delay: 3s;
                animation: hello-cycle steps(54) 8s infinite;
                animation-delay: 3s;
            }

            @-webkit-keyframes hello-cycle {
                0% {-webkit-transform: translate3d(384.3px, 188.7px, 0); }
                100% {-webkit-transform: translate3d(-30350.7px, 188.7px, 0); }
            }

            @-ms-keyframes hello-cycle {
                0% {transform: translate3d(384.3px, 188.7px, 0); }
                100% {transform: translate3d(-30350.7px, 188.7px, 0); }
            }

            @keyframes hello-cycle {
                0% {transform: translate3d(384.3px, 188.7px, 0); }
                100% {transform: translate3d(-30350.7px, 188.7px, 0); }
            }

            .hello-cycle-hide-normal {
                -webkit-animation: hello-cycle-hide-normal 8s infinite;
                -webkit-animation-delay: 3s;
                -ms-animation: hello-cycle-hide-normal 8s infinite;
                -ms-animation-delay: 3s;
                animation: hello-cycle-hide-normal 8s infinite;
                animation-delay: 3s;
            }

            @-webkit-keyframes hello-cycle-hide-normal {
                0% {opacity: 0; }
                11.1% {opacity: 0; }
                11.12% {opacity: 1; }
                100% {opacity: 1; }
            }

            @-ms-keyframes hello-cycle-hide-normal {
                0% {opacity: 0; }
                11.1% {opacity: 0; }
                11.12% {opacity: 1; }
                100% {opacity: 1; }
            }

            @keyframes hello-cycle-hide-normal {
                0% {opacity: 0; }
                11.1% {opacity: 0; }
                11.12% {opacity: 1; }
                100% {opacity: 1; }
            }


            .blink-cycle-hide-normal {
                -webkit-animation: blink-cycle-hide-normal 5s infinite;
                -webkit-animation-delay: 3s;
                -ms-animation: blink-cycle-hide-normal 5s infinite;
                -ms-animation-delay: 3s;
                animation: blink-cycle-hide-normal 5s infinite;
                animation-delay: 3s;
            }

            @-webkit-keyframes blink-cycle-hide-normal {
                0% {opacity: 0; }
                5% {opacity: 0; }
                5.01% {opacity: 1; }
                100% {opacity: 1; }
            }

            @-ms-keyframes blink-cycle-hide-normal {
                0% {opacity: 0; }
                5% {opacity: 0; }
                5.01% {opacity: 1; }
                100% {opacity: 1; }
            }

            @keyframes blink-cycle-hide-normal {
                0% {opacity: 0; }
                5% {opacity: 0; }
                5.01% {opacity: 1; }
                100% {opacity: 1; }
            }


            .blink-cycle {
                -webkit-animation: blink-cycle 5s infinite;
                -webkit-animation-delay: 3s;
                -ms-animation: blink-cycle 5s infinite;
                -ms-animation-delay: 3s;
                animation: blink-cycle 5s infinite;
                animation-delay: 3s;
            }

            @-webkit-keyframes blink-cycle {
                0% {opacity: 1; }
                5% {opacity: 1; }
                5.01% {opacity: 0; }
                100% {opacity: 0; }
            }

            @-ms-keyframes blink-cycle {
                0% {opacity: 1; }
                5% {opacity: 1; }
                5.01% {opacity: 0; }
                100% {opacity: 0; }
            }

            @keyframes blink-cycle {
                0% {opacity: 1; }
                5% {opacity: 1; }
                5.01% {opacity: 0; }
                100% {opacity: 0; }
            }


        ]]></style>


    <!-- BASE -->
    <g id="base" class="group" transform="translate(164.1, 18.8)">
        <path fill="#1D1429" stroke="#483266" stroke-width="3" d="M61.9 362.2s3.5-40.9 10-41.9 16.3 41.9 7.9 41.9H61.9z"/>
        <path fill="#763B48" d="M175.2 293.6c-.5 0-.9-.2-1.2-.6-.3-.5-.4-1.1-.1-1.6 2.3-4.2-.8-8.5-2.1-10-2.6.6-10.4 3-10 9.6 0 .7-.4 1.3-1 1.5-.2 0-.3.1-.5.1-.5 0-1-.3-1.3-.7-.6-1-5.4-8.9-7.2-12.7-3.2 1.1-11.7 4.6-11.7 11.8 0 .6-.4 1.2-1 1.4-.2.1-.3.1-.5.1-.4 0-.9-.2-1.2-.5l-11.6-14.1c-3.9 8.9-16.7 9-17.3 9-.6 0-1.2-.4-1.4-.9-.2-.6-.1-1.2.4-1.6 3.8-3.6 3.7-8.6 3-12.1-1.4-7.1-6.6-13.5-10.5-15-.3-.1-.6-.2-.8-.2-.2 0-.6.1-1 .5-2.4 2.7-2.3 13.1-1.7 19 .1.6-.2 1.1-.7 1.4-.2.2-.5.2-.8.2-.3 0-.5-.1-.8-.2-10.2-6.3-12.9-20.8-14.1-31.2-.7-6.1-3.3-8.3-5.6-8.3-1.5 0-2.9.8-3.7 2.2-7 11.6-23.2 11.7-23.9 11.7-.6 0-1.2-.4-1.4-1-.2-.6 0-1.3.5-1.7 8.7-6.7 14.3-18.5 13.1-23.8-.4-1.6-1.3-2.5-2.8-2.8-.8-.2-1.6-.2-2.4-.2-12.5 0-26.3 18.2-26.4 18.3-.3.4-.7.6-1.2.6-.1 0-.3 0-.4-.1-.6-.2-1-.7-1.1-1.3-.9-7 4.4-20.4 8.7-31.1 2-4.9 4.4-11 4.6-12.9-.3-.1-.6-.1-.9-.1-4.7 0-13 8.5-15.9 11.8-.3.3-.7.5-1.1.5-.2 0-.3 0-.5-.1-.6-.2-1-.7-1-1.3-.4-7 5.8-21.3 9.9-30.8l1.2-2.7c-8.7 6.7-25.7 12.8-26.5 13.1 0 .2-.1.2-.3.2-.6 0-1.2-.4-1.4-1-.3-.8.1-1.6.9-1.9 14.5-5.3 26-32.1 35.3-53.5 5.9-13.7 10.5-24.5 14.9-27.2 4.7-3 8.5-4.6 11.2-4.9l-.9-2.1c-3.6-8.3-8-18.4 2.6-42.6.2-.6.8-.9 1.4-.9h.4c.7.2 1.2.8 1.1 1.6-.4 4.8-.5 18.2 3.9 23 1.1 1.2 2.3 1.7 3.9 1.7 1.2 0 2.5-.3 4-1 2.5-1.1 8-3.7 8.4-7.7.3-3.1-2.7-7.1-8.7-11.4-.6-.5-.8-1.3-.4-2 .1-.2 2.9-4.4 11.8-4.4 2.4 0 5.1.3 7.9.9 1.8.4 3.5.9 5 1.4 2.2.7 4.1 1.3 5.9 1.3 1.7 0 3.4-.6 5.1-1.8 1.4-1 1.6-2.2 2.2-5 1-5 2.7-13.4 14.8-27.9.3-.4.7-.5 1.2-.5.2 0 .4 0 .6.1.6.3 1 .9.9 1.5-.8 7.3-1.1 18.6.8 20.8.1.1.1.1.2.1s.8-.1 2.3-1.9c.2-.2 19.2-22.1 25.3-22.1h.4c.8.1 1.4.8 1.3 1.6 0 .1 0 .2-.1.4-.8 2.9-2.5 11.4-.1 16 1.3 2.6 3.6 5.7 6.7 5.7.8 0 1.5-.2 2.1-.4-1-2.3-.8-5.1.6-8.1 4.3-9.4 20.1-20.2 39-22.1 24.1-2.4 29.7-6.9 34.3-10.5l.3-.2c.3-.2.6-.3.9-.3.2 0 .4 0 .6.1.5.2.9.7.9 1.2s.7 9.1-7.8 18.4c6-2.2 14.5-4.3 24.4-4.3 8.9 0 17.6 1.8 25.8 5.3.7.3 1 1 .9 1.7-.2.7-.8 1.1-1.5 1.1h-1.1c-2.1 0-7.3.4-10.1 3.9-.7.9-1 1.6-.9 2.1.6 1.7 6.7 2.9 11.6 3.8 8.1 1.6 18.2 3.5 22.9 9.3.4.5.4 1.1.2 1.6-.3.5-.8.8-1.3.8h-1.1c-5.5 0-11.7.6-15.5 2.2 11.5 2.2 45.9 10.4 57.5 31.1.3.6.2 1.3-.2 1.8-.3.3-.7.4-1.1.4-.2 0-.5-.1-.7-.2-3.1-1.7-12-6.1-16.4-6.1-1.5 0-1.6.5-1.6.7-.8 3.7 9.9 13.7 19.2 22.6 12.7 12 25.8 24.4 25 32.4-.1.5-.4 1-.9 1.2-.2.1-.4.1-.6.1-.3 0-.7-.1-.9-.3-2.9-2.4-7.9-5.7-9.8-5.8 0 .2 0 .8.3 1.8 2 2.8 19.7 28.9 13.6 72.1-.1.7-.7 1.2-1.4 1.3h-.1c-.7 0-1.3-.5-1.4-1.1-2.8-10.5-9.2-27.2-14.6-27.2h-.1c-.1 2.3.3 9 .6 16 1.7 34.3 3 68.4-2.3 74.8-.3.4-.7.5-1.2.5h-.3c-.6-.1-1-.6-1.1-1.1-1.9-7.7-6-22.7-8.7-28.4-.9 2.7-2.2 8.8-3.4 14.2-3.2 15.1-7.5 35.7-14.5 42.4-.3.3-.7.4-1 .4-.2 0-.4-.1-.7-.2-.6-.3-.9-.9-.8-1.5 1.5-14.3 2.3-36-1-44-2.3 8.1-8.8 29.5-14.5 37.9-.3.4-.8.7-1.2.7-.2 0-.3 0-.5-.1-.6-.2-1.1-.9-1-1.5.5-6 .1-16-3-18.5-2.6 1.3-12.1 7.3-13.6 25.9 0 .5-.3 1-.8 1.2-.2.1-.5.2-.7.2-.2 0-.5-.1-.7-.2-.4-.2-9.1-4.8-17.5-19.3-1.8 0-6.6 4.7-6.6 13.8 0 .7-.5 1.3-1.1 1.4-.1 0-.3.1-.4.1-.5 0-1-.3-1.3-.8-3.9-6.9-8.8-12.9-10.4-12.9-11.5.2-13 10.5-13 10.9-.1.7-.6 1.2-1.3 1.3h-.2c-.6 0-1.1-.3-1.4-.9-2.9-6.2-8.7-9.3-17.2-9.3-11.2 0-22.5 5.5-23.8 7-.9 5-15.9 8.7-22.4 10-.4-.1-.5-.1-.6-.1z"/>
        <path fill="#662938" d="M248.9 3s1.2 12.9-15.1 23.9c0 0 14-8.4 33.3-8.4 7.7 0 16.3 1.4 25.2 5.2h-1.2c-2.4 0-8.1.5-11.3 4.5-8 9.9 24.5 5.8 33.6 17h-1.1c-3.8 0-15.9.3-19.5 4.5 0 0 46.7 6.9 60.2 31 0 0-11.4-6.3-17.1-6.3-1.6 0-2.8.5-3.1 1.9-2 9.6 45.6 41.5 44.2 55.1 0 0-7.6-6.1-10.8-6.1-1.3 0-1.9 1-1 4 0 0 19.8 26.6 13.5 71.2 0 0-7.5-28.3-16-28.3-.5 0-1 .1-1.4.3-1.3.5 6.1 81.9-1.5 91.1 0 0-6.2-24.9-9.7-30.3-.2-.3-.3-.4-.5-.4-3.4 0-8 47.8-18.8 58.2 0 0 4.4-41.1-3.1-47.7 0 0-8.3 30.5-15.2 40.6 0 0 1.5-17.5-4.4-20.4 0 0-13.5 5-15.2 27.5 0 0-8.6-4.4-16.9-18.7-.3-.5-.8-.8-1.4-.8-2.8 0-8.1 5.7-8.1 15.3 0 0-7.8-13.7-11.7-13.7-13 .2-14.5 12.2-14.5 12.2-3.6-7.7-10.9-10.2-18.6-10.2-12.2 0-25.1 6.3-25.3 8.1-.3 4.6-21.2 8.9-21.2 8.9 3.4-6.2-2.9-12.3-2.9-12.3s-12.6 2.1-12 11.4c0 0-6.8-11.2-7.6-13.8 0 0-14.1 3.5-14.1 13.6l-13.4-16.3c-2 10.6-16.7 10.6-16.7 10.6 9.3-8.8 0-26.5-8-29.5-.5-.2-.9-.3-1.3-.3-6.4 0-4.2 21.2-4.2 21.2-9.2-5.7-12.1-18.6-13.4-30.1-.8-7-4-9.6-7.1-9.6-2 0-3.9 1.1-5 2.9-6.6 11-22.6 11-22.6 11 11.4-8.7 19-27.3 9.7-29.2-.9-.2-1.8-.3-2.7-.3-13.4 0-27.6 18.9-27.6 18.9-1.5-11.6 15.7-43.1 13-44.8-.6-.4-1.4-.6-2.1-.6-6.5 0-17 12.4-17 12.4-.6-10.2 14.4-38.8 12.9-38.8-.2 0-.5.4-1.1 1.1-5.9 7.6-29 15.8-29 15.8 24.4-8.9 40-74.4 50.4-80.9 6.3-4 9.6-4.7 11.2-4.7 1.1 0 1.4.3 1.4.3-2.9-8.9-11.5-17.5.9-45.8 0 0-2.2 26.3 9.3 26.3 1.3 0 2.9-.4 4.6-1.1 4.5-2.1 18.5-8.4 0-21.7 0 0 2.3-3.7 10.5-3.7 2.1 0 4.6.3 7.6.9 4.5 1 7.9 2.7 11.2 2.7 1.9 0 3.8-.5 5.9-2 5.3-3.7-1.2-11 17.3-33.2 0 0-2.6 22.6 2.5 22.6.9 0 2-.7 3.5-2.4 4.7-5.5 19.8-21.6 24.2-21.6h.2s-3.1 11 0 17.1c2.7 5.2 5.7 6.5 8.1 6.5 2.4 0 4.1-1.3 4.1-1.3-6.1-8.7 12.7-26.8 37.7-29.3 25-2.7 30.6-7.4 35.3-11.2m0-3c-.7 0-1.3.2-1.9.6l-.3.2c-4.4 3.5-9.9 7.8-33.5 10.2-20.2 2-35.8 13.4-40.2 23-1.2 2.7-1.6 5.3-1.1 7.7h-.2c-2.4 0-4.3-2.7-5.4-4.9-2.1-4.1-.5-12.3.2-14.9.1-.2.1-.5.1-.7.1-1.6-1.1-3-2.6-3.2h-.5c-2 0-5.3 1.1-14 9.6-4.7 4.5-9.7 9.9-12.4 13.1-.3.3-.5.6-.7.7-.9-3-.9-10.9 0-18.7.1-1.3-.6-2.6-1.8-3.1-.4-.2-.8-.2-1.2-.2-.9 0-1.7.4-2.3 1.1-12.3 14.8-14 23.4-15.1 28.6-.6 2.8-.8 3.5-1.6 4.1-1.5 1-2.8 1.5-4.2 1.5-1.6 0-3.4-.6-5.5-1.2-1.5-.5-3.2-1-5.1-1.4-3-.6-5.7-1-8.2-1-9.6 0-12.7 4.6-13.1 5.2-.8 1.3-.5 3.1.8 4 7.4 5.3 8.2 8.6 8.1 10.1-.3 3.1-5.3 5.4-7.5 6.4h-.1c-1.3.6-2.4.9-3.4.9-1.1 0-2-.4-2.8-1.3-3.6-3.9-4.1-15.5-3.5-21.8.1-1.5-.8-2.8-2.3-3.2-.2-.1-.5-.1-.7-.1-1.2 0-2.3.7-2.7 1.8-10.8 24.9-6.1 35.8-2.7 43.8.1.1.1.3.2.4-2.7.7-6 2.3-9.9 4.8-4.5 2.8-8.6 12-15.5 27.9-8.6 20-20.4 47.6-34.3 52.7-1.6.6-2.4 2.3-1.8 3.8.4 1.2 1.6 2 2.8 2 .3 0 .7-.1 1-.2 1.8-.6 13.7-5 22.6-10.4-5.1 12-9.5 23.1-9.1 29.5.1 1.2.9 2.3 2 2.7.3.1.6.2 1 .2.9 0 1.7-.4 2.3-1.1 3.6-4.2 10-10.2 13.8-11.2-.8 2.6-2.6 7-4.1 10.8-4.6 11.4-9.8 24.4-8.8 31.8.2 1.2 1 2.2 2.2 2.5.3.1.5.1.8.1.9 0 1.8-.4 2.4-1.2 3.7-4.9 15.5-17.7 25.2-17.7.7 0 1.4.1 2.1.2 1 .2 1.4.6 1.7 1.6 1.1 4.8-4.5 16.1-12.6 22.2-1 .8-1.4 2.1-1 3.3.4 1.2 1.6 2 2.8 2 .7 0 17.7-.1 25.2-12.4.5-.9 1.5-1.4 2.4-1.4 2 0 3.6 2.7 4.1 6.9 1.2 10.7 4 25.7 14.8 32.3.5.3 1 .4 1.6.4.6 0 1.1-.2 1.6-.5 1-.6 1.5-1.7 1.4-2.9-.8-7.9-.2-16.4 1.3-17.8h.1c3.6 1.3 8.3 7.2 9.6 13.9.6 3.1.7 7.5-2.6 10.7-.9.8-1.2 2.1-.7 3.3.5 1.1 1.6 1.9 2.8 1.9.6 0 12.4-.1 17.6-7.8l10.2 12.4c.6.7 1.4 1.1 2.3 1.1.3 0 .7-.1 1-.2 1.2-.4 2-1.6 2-2.8 0-5.5 6-8.6 9.4-9.9 1.9 3.8 5.4 9.6 6.7 11.7.6.9 1.5 1.4 2.6 1.4.3 0 .6 0 .9-.1 1.3-.4 2.2-1.7 2.1-3.1-.3-4.9 5.1-7 7.9-7.8 1.2 1.6 2.9 4.7 1.3 7.5-.6 1-.5 2.3.2 3.2.6.8 1.5 1.2 2.4 1.2.2 0 .4 0 .6-.1.2 0 5.4-1.1 10.8-2.8 7.9-2.5 11.8-4.9 12.6-7.9 2.1-1.7 12.4-6.3 22.5-6.3 7.9 0 13.2 2.8 15.9 8.4.5 1.1 1.6 1.7 2.7 1.7h.5c1.3-.2 2.3-1.3 2.5-2.6.1-.9 1.6-9.3 11.4-9.6 1.7.7 6 6.3 9.3 12.2.5.9 1.5 1.5 2.6 1.5.3 0 .5 0 .8-.1 1.3-.3 2.2-1.5 2.2-2.9 0-6.6 2.9-10.7 4.5-11.9 8.4 14 17.1 18.6 17.4 18.8.4.2.9.3 1.4.3.5 0 1-.1 1.5-.4.9-.5 1.4-1.4 1.5-2.4 1.2-15.9 8.5-22.2 11.8-24.1 1.7 2.7 2.4 10.2 1.8 16.5-.1 1.4.7 2.6 2 3.1.3.1.7.2 1 .2 1 0 1.9-.5 2.5-1.3 4.8-7.1 10.2-23.2 13.2-33.1 1.4 8.9 1.1 24.6-.3 38.3-.1 1.3.5 2.5 1.7 3 .4.2.9.3 1.3.3.8 0 1.5-.3 2.1-.8 7.3-7 11.5-27.1 14.9-43.2.7-3.4 1.5-7 2.2-9.8 2.3 6.5 5.2 17 7 24.1.3 1.1 1.1 2 2.3 2.2.2 0 .4.1.7.1.9 0 1.7-.4 2.3-1.1 5.1-6.2 4.8-32.5 2.6-75.9-.3-5.5-.5-10.7-.6-13.8 1.6 1.3 4.1 4.6 7 11.7 2.8 6.8 4.7 13.7 4.7 13.8.4 1.3 1.5 2.2 2.9 2.2h.2c1.4-.1 2.6-1.2 2.8-2.6 5.5-38.9-8.1-64.3-12.7-71.4 1.8 1 4.1 2.6 6.1 4.2.5.4 1.2.7 1.9.7.4 0 .8-.1 1.1-.2 1-.4 1.7-1.4 1.8-2.4.9-8.1-9.5-18.6-25.4-33.6-5.2-5-10.2-9.6-13.8-13.7-3.7-4.1-4.7-6.1-4.9-7h.1c3.6 0 11.5 3.6 15.6 5.9.5.2 1 .4 1.4.4.8 0 1.6-.3 2.1-.9.9-1 1.1-2.4.5-3.6C345.9 60.8 318.9 52 304 48.5c2.6-.4 5.6-.6 8.8-.6H314c1.1 0 2.2-.6 2.7-1.7s.4-2.3-.4-3.2c-5-6.2-15.4-8.2-23.8-9.8-3.4-.7-8.8-1.7-10.3-2.8.1-.2.2-.4.5-.7 2.4-3 7.1-3.3 9-3.3h1.2c1.4 0 2.6-.9 2.9-2.3.4-1.4-.4-2.9-1.7-3.5-8.4-3.6-17.3-5.4-26.4-5.4-7.8 0-14.7 1.3-20.2 2.9 5.6-8.2 5.1-15.2 5-15.7-.1-1.1-.8-2.1-1.8-2.5-.9.2-1.4.1-1.8.1z"/>
        <path fill="#F2DFBD" stroke="#662938" stroke-width="3" stroke-linecap="round" stroke-linejoin="round" d="M183.5 112c-3 4-3.7 29.1-1.7 32.9 0 0-6.3-23.4-15.3-25.1-5.1-.9-7.5 4.8-9.8 9.4-2.1 4.2.3 12.2-3.5 18.4 0-7.8-7.3-11.8-10.8-12.5-4.4 5.6-2.4 7.9-3.3 12.5-1.7 8.2 6 39.1 6 39.1-15.8-9.4-13.4-40.6-19.7-36.6-3.9 2.5-3.1 21.1-3.1 21.1s-7.9-13.8-9-22.7c.3 3 .7 13.3-6.2 24.7l-4.1-19.9c-16-9.5-34.1-4.3-34.1 12.6 0 5.7-1.3 17.3 0 22.9 11.5 49.7 31.2 43 41.7 33.4 16.1 27.4 42.3 49.7 82.9 54.5l6.3.6c-.2 7.5 1.8 17.1 4.4 24.9-.7.3-1.4.7-2.1 1-8.5 3.7-47.7 3.6-59 13.8-9.3 5.1-19.1 14.6-20.4 23.7-.4 3.1-.3 9.6.4 16.7l206.4 5c1.2-13.8-1.4-29.7-12-46.7-7.7-12.2-36.7-14.3-59.4-16 0 0-7.3-.4-14.7-1.5-1.6-7.3-3-16.5-3.9-23.6 36.1-7.5 61.1-26.9 66.1-33.7 49-66.2 19.7-103.4 17.3-138.2-.7-10-7.1-18.4-13.3-26.1 2.1 23.5-7.2 60.8-7.2 60.8 2.7-43-17.2-56.6-17.2-56.6-10.2 9.8 3.9 50.7 3.9 50.7-11.6-11.1-14.5-21-16.8-29.5-2.3-8.5-6.4-6.9-7.7 2.2-1.8 12.9 7.9 36.9-23.3 46.5 0 0 16.5-12.3 3.2-36.4-2-3.6-8-11.1-12.1-11.2-12.9-.3 2.2 39.2 1.5 38.9-23-8.2-13.3-38.4-25.4-45.7-2.4-1.5 10.2 25.5-12.7 45.7 0 0 10-31.9-.5-35.8-3.1-1.3-9.8 3.2-11.8 5.8z"/>
        <path fill="#533A76" stroke="#483266" stroke-width="3" d="M79.8 362.2h253.8c1.2-5.6-5.3-42.7-19.1-55-4.2-3.8-31.7-9-51.8-10.4 0 0 5.7 27.2-31.7 30.1-37.4 2.9-43.6-22.7-43.6-22.7s-54.1-4-74 11.7c-14.3 11.3-25.5-12.2-41.5 4.3 0 0 9.4 31.4 7.9 42z"/>

    </g>

    <!-- ARM -->
    <g id="arm">
        <path fill="#F2DFBD" stroke="#D9C5A3" stroke-width="3" stroke-linecap="round" stroke-linejoin="round" transform="translate(97.3 27.6)" d="M136.6 316.6C88.1 311.3 47 277.1 42 258.7c-5.4-19.7-19.5-103.4-.3-151.1 1.8-4.5 6.3-11.3 10.2-13.8 11.3-7.3 4.1-3.9 13.4-8.2C85.7 76.1 85.4 72 85.4 72c-7.5-9.9-21.9 4.9-23.6-2.4-2.4-10.6 35-33.3 30.8-39.4-4.3-6.3-28.1 14-28.1 14s20-25.5 18.2-32.2c-1.8-6.7-19.3 8.4-26.5 23.1 0 0 8.2-33 3.2-33.6C48.3.2 48.8 30.1 44.7 35.3c-1.3 1.7.4-24.9-4.8-25.6-6.1-.7-1.7 20.5-11.7 39.8-3.6 7-15.9 45.9-17.5 53.9-15 72.8-9.1 145.6 0 170 8.9 23.8 60.5 71.1 132 70.8l-6.1-27.6z">

            <animate dur="0.3s" repeatCount="indefinite" attributeName="d" values="M136.6 316.6C88.1 311.3 47 277.1 42 258.7c-5.4-19.7-19.5-103.4-.3-151.1 1.8-4.5 6.3-11.3 10.2-13.8 11.3-7.3 4.1-3.9 13.4-8.2C85.7 76.1 85.4 72 85.4 72c-7.5-9.9-21.9 4.9-23.6-2.4-2.4-10.6 35-33.3 30.8-39.4-4.3-6.3-28.1 14-28.1 14s20-25.5 18.2-32.2c-1.8-6.7-19.3 8.4-26.5 23.1 0 0 8.2-33 3.2-33.6C48.3.2 48.8 30.1 44.7 35.3c-1.3 1.7.4-24.9-4.8-25.6-6.1-.7-1.7 20.5-11.7 39.8-3.6 7-15.9 45.9-17.5 53.9-15 72.8-9.1 145.6 0 170 8.9 23.8 60.5 71.1 132 70.8l-6.1-27.6z;
                M136.6 316.6C88.1 309.3 47 275 42 256.7c-5.4-19.7-19.5-103.4-.3-151.1 1.8-4.5 4.6-8.9 7-12.8 7-11.5 9.4-8.2 15.9-16.2 14.2-17.5 13.1-21.5 13.1-21.5-11.1-5.7-17.6 13.9-22.2 8.1C48.6 54.7 72.4 18 66 14.3c-6.6-3.8-19.2 24.8-19.2 24.8s6.9-31.7 2.4-36.9c-4.6-5.2-13.8 16-13.8 32.3 0 0-6.9-33.3-11.7-31.6-10.7 3.8 2.7 30.4 1.4 36.9-.4 2.1-10.5-22.6-15.5-20.9-5.8 2 5.6 20.1 5 41.7-.2 7.9-2.2 32.7-3.9 40.7-15 72.8-9.1 145.6 0 170 8.9 23.8 60.5 71.1 132 70.8l-6.1-27.6z;
                M136.6 316.6C88.1 311.3 47 277.1 42 258.7c-5.4-19.7-19.5-103.4-.3-151.1 1.8-4.5 6.3-11.3 10.2-13.8 11.3-7.3 4.1-3.9 13.4-8.2C85.7 76.1 85.4 72 85.4 72c-7.5-9.9-21.9 4.9-23.6-2.4-2.4-10.6 35-33.3 30.8-39.4-4.3-6.3-28.1 14-28.1 14s20-25.5 18.2-32.2c-1.8-6.7-19.3 8.4-26.5 23.1 0 0 8.2-33 3.2-33.6C48.3.2 48.8 30.1 44.7 35.3c-1.3 1.7.4-24.9-4.8-25.6-6.1-.7-1.7 20.5-11.7 39.8-3.6 7-15.9 45.9-17.5 53.9-15 72.8-9.1 145.6 0 170 8.9 23.8 60.5 71.1 132 70.8l-6.1-27.6z;"/>
        </path>
    </g>

    <!-- MOUTH -->
    <g id="mouth" class="group">
        <g id="mouth_normal" class="hello-cycle-hide-normal" transform="translate(269.1 123.5)">
            <path fill="none" stroke="#231F20" stroke-width="5" stroke-linecap="round" stroke-linejoin="round" d="M140.5,75.8c0,15.9-19.1,19.1-22.9,0"/>
        </g>

        <g id="mouth_hello" class="hello-cycle" transform="translate(384.3 188.7)" >
            <path fill="none" stroke="#231F20" stroke-width="5" stroke-linecap="round" stroke-linejoin="round" d="M25.4,10.6
            	c0,15.9-19.1,19.1-22.9,0"/>
            <path fill="#5C2012" d="M1719.5,26.5c12.7,3.5,24.2-8.6,28.9-5c1.2-2.7,1.9-5.6,2-8.6c0.1-5.2-1.5-8.4-4-9.9
            	c0.3,1.6,0.5,3.4,0.5,5.3c0,7.1-2.2,8.6-5,8.6c-2.7,0-5-1.6-5-8.6c0-1.4,0.1-2.8,0.3-4.1c-0.6,0.4-1.2,0.8-1.8,1.3
            	c0.4,1.9,0.7,3.9,0.7,6.2c0,7.1-2.2,8.2-5,8.2c-2.7,0-5-1.2-5-8.2c0-0.1,0-0.3,0-0.4c-3.6,0.7-7.6,0.3-11.1-0.4
            	c0,0.3,0.1,0.5,0.1,0.8c0,7.1-2.6,8.2-5.8,8.2c-3.2,0-5.8-1.2-5.8-8.2c0-0.7,0.1-1.2,0.2-1.9c-3.6,1.1-7.7,1.9-8.1,10.8
            	c-0.3,6.7,0.6,13.3,5.8,16.9C1703.9,30,1708.5,23.5,1719.5,26.5z" />
            <path fill="#FFFFFF" d="M1709.4,20c3.2,0,5.8-3.1,5.8-9.3c0-0.2-0.1-0.5-0.1-0.7c-4.6-0.8-8.7-1.8-10.3-1.3
            	c-0.4,0.1-0.7,0.2-1.1,0.3c0,0.6-0.2,1.1-0.2,1.7C1703.5,16.9,1706.2,20,1709.4,20z"/>
            <path fill="#FFFFFF" d="M1731.2,20c2.7,0,5-3.1,5-9.3c0-2-0.3-3.8-0.7-5.5c-0.7,0.5-1.5,1.1-2.2,1.8c-1.9,1.9-4.4,2.9-7,3.3
            	c0,0.1,0,0.2,0,0.4C1726.2,16.9,1728.4,20,1731.2,20z"/>
            <path fill="#FFFFFF" d="M1741.8,16.9c2.7,0,5-3.1,5-9.3c0-1.7-0.2-3.3-0.5-4.7c-2.5-1.3-5.7-0.9-9.1,1.1c-0.2,1.1-0.3,2.3-0.3,3.6
            	C1736.9,13.9,1739.1,16.9,1741.8,16.9z"/>
            <path fill="#DFA1AA" d="M1718.9,39.6c15.9-2.5,25.5-9.6,29.4-18.1c-4.6-3.6-16.2,8.5-28.9,5c-11-3-15.6,3.5-18.1,11
            	C1704.9,39.9,1710.4,40.9,1718.9,39.6z"/>
            <path fill="#5C2012" d="M576.2,25.4c24.6,2.8,46.9-6.9,55.9-4c2.4-2.2,3.7-4.5,3.9-6.9c0.3-4.2-2.9-6.7-7.7-7.9	c0.6,1.3,0.9,2.7,0.9,4.3c0,5.7-4.3,10.3-9.6,10.3c-5.3,0-9.6-4.6-9.6-10.3c0-1.2,0.3-2.2,0.6-3.3c-1.1,0.3-2.2,0.7-3.4,1.1c0.8,1.5,1.4,3.1,1.4,5c0,5.7-4.3,10.3-9.6,10.3c-5.3,0-9.6-4.6-9.6-10.3c0-0.1,0.1-0.2,0.1-0.3c-7,0.6-14.6,0.2-21.6-0.3c0,0.2,0.1,0.4,0.1,0.6c0,5.7-5,10.3-11.3,10.3c-6.2,0-11.3-4.6-11.3-10.3c0-0.5,0.2-1,0.3-1.5c-7,0.9-14.9,1.6-15.7,8.6c-0.6,5.4,1.2,10.7,11.2,13.5C546.1,28.3,555,23,576.2,25.4z"/>
            <path fill="#FFFFFF" d="M556.7,23.9c6.2,0,11.3-4.6,11.3-10.3c0-0.2-0.1-0.4-0.1-0.6c-9-0.7-16.8-1.6-19.9-1.1
            	c-0.7,0.1-1.4,0.2-2.1,0.3c-0.1,0.5-0.3,1-0.3,1.5C545.4,19.3,550.4,23.9,556.7,23.9z"/>
            <path fill="#FFFFFF" d="M598.9,23.9c5.3,0,9.6-4.6,9.6-10.3c0-1.8-0.6-3.5-1.4-5c-1.4,0.5-2.8,1-4.2,1.6c-3.8,1.7-8.5,2.6-13.6,3
            	c0,0.1-0.1,0.2-0.1,0.3C589.3,19.3,593.6,23.9,598.9,23.9z"/>
            <path fill="#FFFFFF" d="M619.5,21.1c5.3,0,9.6-4.6,9.6-10.3c0-1.5-0.4-3-0.9-4.3c-4.7-1.1-11.1-0.8-17.7,1c-0.3,1-0.6,2.1-0.6,3.3
            	C609.9,16.5,614.2,21.1,619.5,21.1z"/>
            <path fill="#DFA1AA" d="M575.1,35.9c30.8-2,49.4-7.7,57-14.5c-8.9-2.8-31.3,6.8-55.9,4c-21.2-2.4-30.1,2.8-35,8.8
            	C548.1,36.2,558.7,37,575.1,35.9z"/>
            <ellipse fill="#5C2012" cx="2301.2" cy="21.8" rx="15.6" ry="19.8"/>
            <ellipse fill="#5C2012" cx="2871.2" cy="21.8" rx="15.6" ry="19.8"/>
            <path fill="#FFFFFF" d="M1140.1,4.3c-7.5-0.6-13.9-1.3-17.5-1.3C1121.7,12.2,1132,24.2,1140.1,4.3z"/>
            <path fill="#FFFFFF" d="M1174.5,3.5c0,0,0-0.1,0-0.1c-2.7,0.7-5.8,1.4-9.3,1.6c-2.2,0.1-4.5,0.2-6.9,0.2
            	C1158.7,14.4,1171.1,24.3,1174.5,3.5z"/>
            <path fill="#FFFFFF" d="M1174.5,3.4c0,0,0,0.1,0,0.1c4.7,15.3,13.2,9.1,12.5-3.5C1183.9,0.1,1179.9,2,1174.5,3.4z"/>
            <path fill="#5C2012" d="M1193.1,5c-1.5-3.9-3.5-5.1-6.1-5c0.8,12.7-7.8,18.8-12.5,3.5c-0.8,4.7-2,7.7-3.4,9.6
            	c1.8,1.5,3.1,3.4,3.7,5.7c1.6,6.6,2,13.8,1.4,20.3C1191.4,29.1,1196.1,12.8,1193.1,5z"/>
            <path fill="#5C2012" d="M1143.8,16c0.2-5.9,7.6-8.3,15.1-7.6c-0.3-1.1-0.6-2.1-0.6-3.2c-6,0-12.3-0.4-18.2-0.9
            	c-8.1,19.9-18.4,7.9-17.5-1.3c-0.7,0-1.4,0-1.9,0c-5.7,0.5-9,3.6-8.8,9.3c0.1,4.2,2.5,17.9,12.2,27
            	C1138.6,35.4,1143.4,27.4,1143.8,16z"/>
            <path fill="#DFA1AA" d="M1174.8,18.8c-0.6-2.3-1.9-4.1-3.7-5.7c-4.2,5.6-10.3,1.2-12.2-4.7c-7.5-0.7-14.9,1.7-15.1,7.6c-0.4,11.4-5.2,19.4-19.7,23.3c6.1,5.7,15,9.6,28.2,8.2c9.9-1.1,17.8-4.2,24-8.3C1176.7,32.7,1176.4,25.4,1174.8,18.8z"/>
        </g>
    </g>

    <!-- MOUTH -->
    <g id="eyes" class="group">
        <g id="eyes_normal" class="blink-cycle-hide-normal" transform="translate(327.4 168.3)">
            <path fill="#231F20" d="M113.5,8.3c0,4.6,3.7,8.3,8.3,8.3c4.6,0,8.3-3.7,8.3-8.3c0-4.6-3.7-8.3-8.3-8.3C117.3,0,113.5,3.7,113.5,8.3z"/>
            <path fill="#231F20" d="M0,19c0,5.6,4.5,10.1,10.1,10.1c5.6,0,10.1-4.5,10.1-10.1c0-5.6-4.5-10.1-10.1-10.1C4.5,8.9,0,13.4,0,19z"/>
        </g>

        <g id="eyes_blink" class="blink-cycle" transform="translate(327.4 174.9)">
            <path fill="#231F20" d="M113.5,1.7c0,0.9,3.7,1.7,8.3,1.7c4.6,0,8.3-0.7,8.3-1.7S126.4,0,121.8,0C117.3,0,113.5,0.7,113.5,1.7z"/>
            <path fill="#231F20" d="M0,12.4c0,1.5,4.5,2.7,10.1,2.7c5.6,0,10.1-1.2,10.1-2.7c0-1.5-4.5-2.7-10.1-2.7C4.5,9.7,0,10.9,0,12.4z"/>
        </g>
    </g>
</svg>